<?xml version="1.0" standalone="no"?>
<!DOCTYPE svg PUBLIC "-//W3C//DTD SVG 20010904//EN"
 "http://www.w3.org/TR/2001/REC-SVG-20010904/DTD/svg10.dtd">
<svg version="1.0" xmlns="http://www.w3.org/2000/svg"
 width="260.000000pt" height="260.000000pt" viewBox="0 0 260.000000 260.000000"
 preserveAspectRatio="xMidYMid meet">
<metadata>
Created by potrace 1.14, written by Peter Selinger 2001-2017
</metadata>
<g transform="translate(0.000000,260.000000) scale(0.100000,-0.100000)"
fill="#000000" stroke="none">
<path d="M1208 2435 c-2 -2 -28 -6 -58 -9 -178 -19 -401 -112 -550 -231 -61
-48 -192 -187 -184 -194 5 -4 50 -20 99 -34 50 -14 105 -30 123 -36 l32 -10 1
42 c2 89 5 136 9 140 12 11 414 -67 631 -123 182 -46 332 -97 446 -150 156
-73 220 -167 322 -478 58 -173 61 -201 29 -221 -179 -114 -272 -150 -405 -158
-95 -6 -170 4 -279 37 -130 39 -322 131 -489 235 -59 36 -109 64 -111 62 -2
-2 17 -51 42 -109 51 -118 34 -104 239 -195 213 -95 389 -149 510 -156 105 -7
269 36 408 104 43 22 82 37 87 34 9 -6 -9 -80 -33 -136 -18 -44 -73 -84 -190
-138 -77 -36 -211 -83 -269 -95 -13 -3 -32 -7 -43 -9 -29 -7 -108 -21 -120
-22 -5 -1 -33 -5 -62 -9 -146 -22 -361 -22 -528 -2 -22 3 -67 8 -100 12 -132
16 -293 2 -311 -27 -8 -14 72 -96 161 -164 74 -57 190 -123 265 -150 25 -9 54
-21 65 -25 70 -30 200 -50 340 -54 426 -11 827 229 1024 614 69 136 93 209
116 368 12 83 13 301 1 320 -2 4 -7 28 -11 52 -10 67 -59 209 -104 297 -157
310 -444 527 -793 598 -69 15 -300 29 -310 20z"/>
<path d="M1459 1766 c-108 -29 -199 -116 -234 -224 -21 -64 -16 -171 11 -229
100 -216 376 -269 541 -103 93 95 121 224 75 355 -24 71 -121 166 -191 190
-68 22 -144 27 -202 11z m146 -97 c95 -24 168 -121 168 -221 -1 -214 -260
-313 -402 -152 -152 173 9 430 234 373z"/>
<path d="M1506 1529 c-21 -25 -24 -33 -14 -54 13 -29 75 -56 115 -49 69 12
104 72 62 109 -15 14 -38 20 -80 22 -54 2 -60 -1 -83 -28z"/>
</g>
</svg>
